HIERARCHY
ROOT hip
{
	OFFSET 0.000000 0.000000 0.000000 
	CHANNELS 6 Xposition Yposition Zposition Xrotation Zrotation Yrotation
	JOINT abdomen
	{
		OFFSET 0.000000 3.402643 0.000000 
		CHANNELS 3 Xrotation Zrotation Yrotation
		JOINT chest
		{
			OFFSET 0.000000 8.438565 -0.680529 
			CHANNELS 3 Xrotation Zrotation Yrotation
			JOINT neck
			{
				OFFSET 0.000000 10.207942 -0.272212 
				CHANNELS 3 Xrotation Zrotation Yrotation
				JOINT head
				{
					OFFSET 0.000000 3.130431 0.000000 
					CHANNELS 3 Xrotation Zrotation Yrotation
					End Site
					{
						OFFSET 0.000000 3.130435 0.000000 
					}
				}
			}
			JOINT lCollar
			{
				OFFSET 3.470700 6.669187 -0.816635 
				CHANNELS 3 Yrotation Zrotation Xrotation
				JOINT lShldr
				{
					OFFSET 3.198488 0.000000 0.000000 
					CHANNELS 3 Zrotation Yrotation Xrotation
					JOINT lForeArm
					{
						OFFSET 10.139888 0.000000 0.000000 
						CHANNELS 3 Yrotation Zrotation Xrotation
						JOINT lHand
						{
							OFFSET 8.370511 0.000000 0.000000 
							CHANNELS 3 Zrotation Yrotation Xrotation
							End Site
							{
								OFFSET 4.083176 0.000000 0.000000 
							}
						}
					}
				}
			}
			JOINT rCollar
			{
				OFFSET -3.470700 6.669187 -0.816635 
				CHANNELS 3 Yrotation Zrotation Xrotation
				JOINT rShldr
				{
					OFFSET -3.198488 0.000000 0.000000 
					CHANNELS 3 Zrotation Yrotation Xrotation
					JOINT rForeArm
					{
						OFFSET -10.139888 0.000000 0.000000 
						CHANNELS 3 Yrotation Zrotation Xrotation
						JOINT rHand
						{
							OFFSET -8.370511 0.000000 0.000000 
							CHANNELS 3 Zrotation Yrotation Xrotation
							End Site
							{
								OFFSET -4.083176 0.000000 0.000000 
							}
						}
					}
				}
			}
		}
	}
	JOINT lThigh
	{
		OFFSET 5.308129 -1.633274 1.361059 
		CHANNELS 3 Xrotation Zrotation Yrotation
		JOINT lShin
		{
			OFFSET -2.041588 -20.007561 0.000000 
			CHANNELS 3 Xrotation Zrotation Yrotation
			JOINT lFoot
			{
				OFFSET 0.000000 -19.190928 -1.224953 
				CHANNELS 3 Xrotation Yrotation Zrotation
				End Site
				{
					OFFSET 0.000000 -2.449906 4.627600 
				}
			}
		}
	}
	JOINT rThigh
	{
		OFFSET -5.308129 -1.633274 1.361059 
		CHANNELS 3 Xrotation Zrotation Yrotation
		JOINT rShin
		{
			OFFSET 2.041588 -20.007561 0.000000 
			CHANNELS 3 Xrotation Zrotation Yrotation
			JOINT rFoot
			{
				OFFSET 0.000000 -19.190928 -1.224953 
				CHANNELS 3 Xrotation Yrotation Zrotation
				End Site
				{
					OFFSET 0.000000 -2.449906 4.627600 
				}
			}
		}
	}
}
MOTION
Frames: 9
Frame Time: 0.011111
25.140381 46.059196 45.885983 9.689705 7.920826 -100.093422 47.472004 4.567067 2.220187 -25.071033 4.961630 -0.533291 1.634012 -10.866693 -21.201954 -3.365011 34.843391 -43.771320 9.969777 -14.785672 3.853935 -46.732975 -27.138699 -7.210621 -53.878029 8.485151 9.745101 8.524705 12.647240 -50.403698 -4.049711 8.641859 2.072876 0.125496 25.307510 -46.617050 51.325668 -8.001536 8.699287 -8.534408 -12.637552 86.087753 -48.644779 32.903950 6.080459 78.318069 -0.437500 -9.358234 -26.837204 -17.887690 -11.794736 -17.918417 -21.882252 -7.172692 43.791954 4.345347 6.509978 -24.345083 2.219884 3.337428 
24.997845 46.140015 46.055771 9.930262 8.043947 -100.033356 47.101734 4.643701 2.054649 -25.022165 5.094475 -0.580931 1.364390 -11.078867 -21.034187 -2.412021 35.055580 -43.220215 9.969777 -14.785672 3.853935 -47.159599 -26.893181 -5.972188 -53.982578 8.499961 9.788169 8.524705 12.647240 -49.759167 -4.049711 8.641859 2.072876 0.570014 25.121080 -44.400326 51.786766 -8.095881 8.883384 -8.534408 -12.637552 88.001808 -47.964622 32.877419 6.265983 77.578491 -0.536091 -9.337201 -27.575737 -18.012745 -12.059126 -17.175087 -21.587536 -6.812656 42.421268 4.453031 6.353898 -23.958628 1.815109 3.166216 
24.858131 46.247780 46.239971 10.020173 8.136192 -99.771141 46.720230 4.730536 1.752114 -25.120399 5.234555 -0.652352 1.339219 -11.128768 -21.000029 -1.731092 35.035454 -42.921329 9.969777 -14.785672 3.853935 -47.706024 -26.616394 -4.750533 -54.130512 8.526693 9.851665 8.524705 12.647240 -49.524792 -4.049711 8.641859 2.072876 0.971610 25.050852 -43.224758 51.870716 -8.114000 8.924426 -8.534408 -12.637552 87.669785 -47.264282 32.498859 6.353188 76.761391 -0.642930 -9.297145 -28.046846 -18.344746 -12.389139 -16.285898 -21.488855 -6.627513 40.850578 4.589358 6.170008 -23.461073 1.373550 3.017475 
24.690533 46.413185 46.455181 9.809636 8.226035 -99.208778 46.235954 4.806423 1.127905 -25.042183 5.436277 -0.801784 1.270526 -11.307673 -21.033930 -1.239256 35.134434 -42.836475 9.969777 -14.785672 3.853935 -48.320915 -26.401180 -3.254903 -54.404697 8.572787 9.971276 8.524705 12.647240 -49.456432 -4.049711 8.641859 2.072876 1.259808 25.124815 -43.568069 51.660664 -8.069040 8.833773 -8.534408 -12.637552 85.902206 -46.439339 31.489180 6.433013 75.866814 -0.769191 -9.245275 -28.619061 -18.497107 -12.645205 -15.164699 -21.745235 -6.828883 39.209023 4.716712 5.983458 -23.004740 0.553275 2.703301 
24.526384 46.607716 46.680729 9.634044 8.312407 -98.779785 45.797569 4.775928 0.676193 -24.845989 5.489248 -0.876177 0.943573 -11.313684 -21.059454 -0.707173 35.133499 -42.818638 9.969777 -14.785672 3.853935 -48.691811 -26.395226 -1.274840 -54.658566 8.616488 10.078740 8.524705 12.647240 -49.075573 -4.049711 8.641859 2.072876 1.664176 25.366955 -44.681221 51.419411 -8.017780 8.731831 -8.534408 -12.637552 84.769386 -45.560246 30.649172 6.666503 74.933121 -0.906434 -9.195777 -29.100243 -18.334455 -12.665677 -14.032443 -21.892988 -7.101918 37.507351 4.827752 5.782803 -22.170404 -0.727223 2.255997 
24.397005 46.824181 46.883415 9.891292 8.645928 -98.462708 45.288292 5.052838 0.562755 -24.846197 5.630626 -0.938255 0.962318 -11.345936 -21.065348 -0.602391 35.044533 -42.789967 9.969777 -14.785672 3.853935 -49.314220 -26.079784 0.721212 -55.133808 8.690954 10.274733 8.524705 12.647240 -48.665417 -4.049711 8.641859 2.072876 1.910672 25.957645 -46.196415 51.146976 -7.959779 8.620215 -8.534408 -12.637552 84.388535 -45.283184 30.429699 6.721329 74.037613 -1.016166 -9.146031 -28.940136 -18.384016 -12.641363 -13.190874 -21.439587 -6.759428 35.810623 4.960746 5.568871 -21.068560 -2.110833 1.874075 
24.291124 47.086071 47.073563 10.522346 9.166454 -97.996681 44.735714 5.776561 0.617835 -24.964233 5.797276 -1.034310 1.061892 -11.488853 -21.026699 -0.479057 34.942974 -42.620953 9.969777 -14.785672 3.853935 -50.123779 -25.617334 2.425001 -55.736591 8.781430 10.528693 8.524705 12.647240 -48.675182 -4.049711 8.641859 2.072876 2.293553 26.287050 -46.050831 51.304066 -7.994039 8.690587 -8.534408 -12.637552 85.716652 -45.673031 30.634136 6.407136 73.249329 -1.110618 -9.091228 -28.217659 -18.931328 -12.799735 -12.459235 -20.494444 -5.926928 34.113384 5.067616 5.343476 -20.256580 -3.525964 1.463695 
24.164877 47.357986 47.321045 10.384234 9.395881 -97.403999 44.310894 5.911664 0.125357 -25.032839 5.824706 -1.151863 0.919908 -11.363696 -21.005463 -0.060675 34.867863 -42.472740 9.969777 -14.785672 3.853935 -50.619263 -25.460039 4.111396 -56.298286 8.864724 10.780749 8.524705 12.647240 -49.085339 -4.049711 8.641859 2.072876 3.098794 26.096361 -45.257416 51.524944 -8.043941 8.781283 -8.534408 -12.637552 86.390488 -45.341721 29.872997 6.614360 72.441406 -1.228406 -9.049170 -27.317247 -19.263756 -12.745826 -11.707917 -20.661270 -5.434995 32.488598 5.185360 5.163849 -19.278774 -4.804262 1.187207 
24.018585 47.636166 47.612694 9.644604 9.441889 -96.774345 43.948181 5.627344 -0.844353 -25.003698 6.034113 -1.325676 0.770112 -11.437334 -20.973274 0.293112 34.998432 -42.363224 9.969777 -14.785672 3.853935 -51.361641 -25.306763 5.698963 -57.040493 8.962976 11.095878 8.524705 12.647240 -49.524792 -4.049711 8.641859 2.072876 3.769981 26.078636 -44.904087 51.682285 -8.076359 8.842575 -8.534408 -12.637552 86.468613 -44.496307 28.442659 7.397019 71.652245 -1.316034 -9.005796 -26.404617 -19.167398 -12.433634 -10.985201 -21.666744 -5.417494 30.955612 5.263287 4.951046 -17.566429 -5.941330 1.134587 
